<svg width="116" height="49" viewBox="0 0 116 49" fill="none" xmlns="http://www.w3.org/2000/svg">
<path d="M43.84 1.24C40.76 7.92 36.24 16.36 33.56 21.48C33.32 21.92 33.44 22.32 33.8 22.32C34.24 22.32 34.2 22.72 33.76 22.8C33.56 22.84 32.96 23.08 32.56 23.24C29.64 28.2 26.6 33.12 22.8 37.52C18.96 42.04 14.08 46 7.4 47.6C2.6 48.72 0.32 45.44 3.48 40.72C8.8 32.84 22.76 25.4 31.32 22.76C34.76 16.24 38.88 8.16 41.12 2.92C34.04 2.88 26.64 6.92 22.76 13.24C21.2 15.8 19.52 19.8 21.12 23C21.32 23.4 21.08 23.64 20.8 23.16C19.32 20.48 19.16 15.96 21.2 12.44C26.52 3.32 38.56 2.48 41.28 1.52C42 1.4 42.52 0.999998 42.84 0.639997C43.28 0.239998 44.04 0.919999 43.84 1.24ZM31 23.56C22 26.52 10.16 33.48 4.52 41.28C1.28 45.76 3.32 47.96 7.36 46.88C13.72 45.2 18.4 40.88 21.92 36.88C24.56 33.84 28.84 27 31 23.56ZM52.1322 19.12C50.6522 21.36 48.2522 25.92 47.8922 28.08C47.5722 30 48.4922 29.68 49.2522 29.48C49.6122 29.36 52.9722 27.04 53.2922 26.84C54.1322 26.28 54.2122 26.88 53.5722 27.52C53.0122 28.08 49.4522 30.56 48.7722 30.8C48.0922 31 46.7722 29.84 46.7722 28.8C46.7722 26.72 47.8922 24.32 48.6522 22.52C48.9722 21.72 48.6522 20.92 47.6922 21.88C45.0922 24.44 38.8922 30.44 37.2122 31C35.7722 31.48 34.7722 30.28 34.8522 28.96C35.1322 25.2 40.1722 18.08 42.1722 15.72C42.7322 15.08 44.2522 15.2 43.2522 16.44C40.8522 19.44 37.4922 24.68 36.6922 27.52C36.0522 29.68 36.8922 30.28 38.2122 29.52C42.4122 27 47.7322 20.44 50.9722 17.6C51.9722 16.68 52.4922 18.6 52.1322 19.12ZM58.94 26.76C63.22 24.36 67.3 23.2 71.26 22.52L71.3 22.56C67.58 23.28 63.66 24.88 59.42 27.32C60.1 28.24 60.38 28.84 60.38 29.2C60.38 29.96 59.5 30.68 57.74 31.44C56.22 32.12 54.98 32.44 54.1 32.44C53.74 32.44 53.5 32.4 53.26 32.32C52.54 32.44 52.06 32.56 51.82 32.48C51.42 32.44 51.38 32.28 51.58 31.96C52.06 31.36 53.86 30 56.98 27.84L55.7 26.12C55.14 25.36 54.82 24.68 54.74 23.96C54.5 22.2 56.34 20.2 60.18 17.92C63.98 15.68 67.42 14.56 70.38 14.6C70.54 14.6 70.7 14.68 70.82 14.84C70.94 15.08 70.94 15.24 70.82 15.36C70.46 15.88 69.38 16.6 69.02 16.48C67.82 16.08 66.94 15.92 66.38 15.92C66.06 15.92 65.74 15.96 65.5 16C64.02 16.36 62.26 17.24 60.22 18.68C57.7 20.4 56.5 21.92 56.7 23.24C56.78 23.84 57.1 24.52 57.58 25.28C58.1 26.04 58.54 26.56 58.94 26.76ZM53.62 31.56C53.42 31.8 53.5 31.96 53.78 32C54.26 32.12 55.1 31.96 56.22 31.56C57.3 31.16 58.02 30.84 58.3 30.44C58.42 30.28 58.46 30.12 58.46 30C58.46 29.56 58.14 29.08 57.54 28.52C57.14 28.76 56.5 29.2 55.58 29.88C54.54 30.64 53.86 31.16 53.62 31.56ZM94.3869 1.24C91.3069 7.92 86.7869 16.36 84.1069 21.48C83.8669 21.92 83.9869 22.32 84.3469 22.32C84.7869 22.32 84.7469 22.72 84.3069 22.8C84.1069 22.84 83.5069 23.08 83.1069 23.24C80.1869 28.2 77.1469 33.12 73.3469 37.52C69.5069 42.04 64.6269 46 57.9469 47.6C53.1469 48.72 50.8669 45.44 54.0269 40.72C59.3469 32.84 73.3069 25.4 81.8669 22.76C85.3069 16.24 89.4269 8.16 91.6669 2.92C84.5869 2.88 77.1869 6.92 73.3069 13.24C71.7469 15.8 70.0669 19.8 71.6669 23C71.8669 23.4 71.6269 23.64 71.3469 23.16C69.8669 20.48 69.7069 15.96 71.7469 12.44C77.0669 3.32 89.1069 2.48 91.8269 1.52C92.5469 1.4 93.0669 0.999998 93.3869 0.639997C93.8269 0.239998 94.5869 0.919999 94.3869 1.24ZM81.5469 23.56C72.5469 26.52 60.7069 33.48 55.0669 41.28C51.8269 45.76 53.8669 47.96 57.9069 46.88C64.2669 45.2 68.9469 40.88 72.4669 36.88C75.1069 33.84 79.3869 27 81.5469 23.56ZM86.2391 30.48C85.9191 30.68 85.6391 30.8 85.3191 30.8C84.6391 30.8 84.3191 30.36 84.3191 29.4C84.3191 27.52 85.7991 25.08 88.7591 22.12C91.4791 19.44 93.8791 17.72 95.9591 16.92C96.4391 16.72 96.9991 16.6 97.5991 16.6C98.2391 16.6 98.8791 16.76 99.5191 16.96C99.9191 17 100.159 17.04 100.279 17C100.719 16.92 101.079 16.76 101.319 16.48C101.359 16.44 101.479 16.4 101.559 16.4C101.759 16.4 101.959 16.76 101.919 16.88C100.399 19.24 98.8391 21.6 97.3991 23.96C95.1591 27.72 92.9991 34.16 92.5191 37.24C92.4791 37.52 92.4791 37.76 92.4791 38C92.4791 39.8 93.6791 40.68 95.5991 40.68C96.5191 40.68 97.5191 40.52 98.4391 40.2C99.8791 39.72 101.719 38.56 103.959 36.76C106.119 35 107.879 33.04 109.159 31.4C109.399 31.12 109.519 31 109.639 31C109.679 31.04 109.679 31.08 109.679 31.12C109.679 31.24 109.639 31.36 109.519 31.56C108.319 33.36 106.559 35.48 104.199 37.48C101.999 39.28 100.199 40.48 98.7191 41C97.9991 41.24 97.2391 41.4 96.3991 41.4C95.1191 41.4 94.0391 40.88 93.1991 40.36C92.1991 39.72 91.8391 38.6 91.8791 37.24C91.9591 35 93.7191 29.28 95.1591 26.12C96.0391 24.2 96.9191 22.52 97.8391 21.16C98.0391 20.84 98.0391 20.72 97.7991 20.72C97.7591 20.72 97.7191 20.76 97.6791 20.8C96.3991 22.32 94.5991 24.04 92.2791 26.04C89.9591 28 87.9591 29.48 86.2391 30.48ZM86.8791 27.08C86.7591 27.4 86.7191 27.72 86.7191 28C86.7191 28.68 86.9591 28.96 87.4391 28.96C87.5991 28.96 87.8391 28.88 88.0391 28.76C90.9991 26.88 94.3191 23.68 98.0791 19.2C98.1591 19.12 98.1991 19.04 98.1991 18.92C98.1991 18.32 97.4391 17.72 96.3591 17.72C96.0391 17.72 95.7591 17.76 95.4391 17.84C94.1591 18.16 92.5591 19.4 90.6791 21.48C88.8791 23.48 87.6391 25.36 86.8791 27.08ZM115.167 19.08C112.847 20.12 107.407 24.2 105.127 25.88C105.487 27.6 106.847 31.84 107.967 33.24C108.607 34.04 108.087 34.16 107.567 33.56C106.527 32.44 104.887 28.52 104.287 26.52C102.087 28.08 98.5666 31.12 95.5666 34.52C94.0466 36.24 91.0466 40.04 92.7266 42.72C93.3666 43.72 94.2866 44.28 95.1666 44.48C95.5666 44.64 95.3666 44.96 94.9666 44.8C94.1666 44.64 93.0466 43.92 92.4066 43.04C90.4466 40.24 92.4066 37.04 94.9266 34.04C97.5666 30.88 101.407 27.64 103.967 25.52C103.567 23.88 103.007 20.52 102.847 18.92C102.807 18.28 103.607 17.6 103.727 18.52C104.007 20.24 104.367 23.28 104.847 24.8C106.927 23.16 112.687 19 114.767 17.92C115.487 17.56 116.007 18.72 115.167 19.08Z" fill="#DEB887"/>
</svg>
