<svg width="194" height="26" viewBox="0 0 194 26" fill="none" xmlns="http://www.w3.org/2000/svg">
<path d="M13.2422 26L3.83789 7.52539V26H0.234375V0.792969H4.17188L13.7695 19.7773L23.3848 0.792969H27.3047V26H23.7188V7.52539L14.3145 26H13.2422ZM55.4121 22.3965C55.4121 22.8887 55.3184 23.3574 55.1309 23.8027C54.9434 24.2363 54.6855 24.6172 54.3574 24.9453C54.0293 25.2734 53.6426 25.5312 53.1973 25.7188C52.7637 25.9062 52.3008 26 51.8086 26H37.4121C36.9199 26 36.4512 25.9062 36.0059 25.7188C35.5723 25.5312 35.1914 25.2734 34.8633 24.9453C34.5352 24.6172 34.2773 24.2363 34.0898 23.8027C33.9023 23.3574 33.8086 22.8887 33.8086 22.3965V4.39648C33.8086 3.9043 33.9023 3.44141 34.0898 3.00781C34.2773 2.5625 34.5352 2.18164 34.8633 1.86523C35.1914 1.53711 35.5723 1.2793 36.0059 1.0918C36.4512 0.892578 36.9199 0.792969 37.4121 0.792969H51.8086C52.3008 0.792969 52.7637 0.892578 53.1973 1.0918C53.6426 1.2793 54.0293 1.53711 54.3574 1.86523C54.6855 2.18164 54.9434 2.5625 55.1309 3.00781C55.3184 3.44141 55.4121 3.9043 55.4121 4.39648V22.3965ZM37.4121 4.39648V22.3965H51.8086V4.39648H37.4121ZM78.3164 12.8516C78.8438 13.0156 79.3242 13.25 79.7578 13.5547C80.1914 13.8594 80.5605 14.252 80.8652 14.7324C81.1699 15.2012 81.4043 15.7578 81.5684 16.4023C81.7324 17.0469 81.8145 17.7852 81.8145 18.6172V19.8828C81.8145 23.9609 79.7754 26 75.6973 26H61.8984V0.792969H74.9766C79.0547 0.792969 81.0938 2.83789 81.0938 6.92773V7.38477C81.0938 8.80273 80.8652 9.96289 80.4082 10.8652C79.9629 11.7559 79.2656 12.418 78.3164 12.8516ZM65.4316 15.0137V22.4668H75.5918C76.541 22.4668 77.2266 22.2441 77.6484 21.7988C78.0703 21.3535 78.2812 20.6562 78.2812 19.707V17.7559C78.2812 16.7949 78.0703 16.0977 77.6484 15.6641C77.2266 15.2305 76.541 15.0137 75.5918 15.0137H65.4316ZM65.4316 4.32617V11.498H75.1172C75.9844 11.4629 76.6055 11.2285 76.9805 10.7949C77.3672 10.3496 77.5605 9.66992 77.5605 8.75586V7.10352C77.5605 6.14258 77.3496 5.43945 76.9277 4.99414C76.5059 4.54883 75.8203 4.32617 74.8711 4.32617H65.4316ZM86.8594 14.1172H95.2793V17.5801H86.8594V14.1172Z" fill="black"/>
<path d="M105.018 15.207C104.525 15.207 104.057 15.1133 103.611 14.9258C103.178 14.7266 102.797 14.4688 102.469 14.1523C102.141 13.8242 101.883 13.4434 101.695 13.0098C101.508 12.5645 101.414 12.0957 101.414 11.6035V4.39648C101.414 3.9043 101.508 3.44141 101.695 3.00781C101.883 2.5625 102.141 2.18164 102.469 1.86523C102.797 1.53711 103.178 1.2793 103.611 1.0918C104.057 0.892578 104.525 0.792969 105.018 0.792969H117.252C117.744 0.792969 118.207 0.892578 118.641 1.0918C119.086 1.2793 119.473 1.53711 119.801 1.86523C120.129 2.18164 120.387 2.5625 120.574 3.00781C120.762 3.44141 120.855 3.9043 120.855 4.39648V7.64844H117.252V4.39648H105.018V11.6035H117.252C117.744 11.6035 118.207 11.6973 118.641 11.8848C119.086 12.0723 119.473 12.3301 119.801 12.6582C120.129 12.9863 120.387 13.373 120.574 13.8184C120.762 14.252 120.855 14.7148 120.855 15.207V22.3965C120.855 22.8887 120.762 23.3574 120.574 23.8027C120.387 24.2363 120.129 24.6172 119.801 24.9453C119.473 25.2734 119.086 25.5312 118.641 25.7188C118.207 25.9062 117.744 26 117.252 26H104.666C104.174 26 103.705 25.9062 103.26 25.7188C102.826 25.5312 102.445 25.2734 102.117 24.9453C101.789 24.6172 101.531 24.2363 101.344 23.8027C101.156 23.3574 101.062 22.8887 101.062 22.3965V19.1621H104.666V22.3965H117.252V15.207H105.018ZM125.197 0.792969H145.359V4.39648H137.08V26H133.477V4.39648H125.197V0.792969ZM149.684 0.792969H168.053V4.39648H153.287V11.6035H165.891V15.207H153.287V22.3965H168.053V26H149.684V0.792969ZM193.365 9.79297C193.365 13.3086 191.865 15.3125 188.865 15.8047L193.611 26H189.621L184.945 15.9277H177.053V26H173.449V0.792969H187.248C191.326 0.792969 193.365 2.83789 193.365 6.92773V9.79297ZM177.053 12.3242H187.055C188.016 12.3242 188.707 12.1133 189.129 11.6914C189.551 11.2695 189.762 10.5781 189.762 9.61719V7.10352C189.762 6.14258 189.551 5.45117 189.129 5.0293C188.707 4.60742 188.016 4.39648 187.055 4.39648H177.053V12.3242Z" fill="#1268A6"/>
</svg>
