<svg width="307" height="93" viewBox="0 0 307 93" fill="none" xmlns="http://www.w3.org/2000/svg">
<path d="M21.68 73.96C16.6667 73.96 12.9333 72.0133 10.48 68.12C8.08 64.2267 6.98667 59.0533 7.2 52.6C5.33333 52.8133 3.78667 52.1733 2.56 50.68C1.38667 49.1867 0.8 47.08 0.8 44.36C0.8 41.64 1.49333 38.44 2.88 34.76C4.32 31.08 6.72 27.1333 10.08 22.92C11.84 20.7333 13.5467 18.76 15.2 17C16.8533 15.1867 18.48 13.5333 20.08 12.04C21.8933 9.05333 23.76 6.46666 25.68 4.28C27.6 2.09333 29.2 0.839996 30.48 0.519997C30.7467 0.466664 30.96 0.439998 31.12 0.439998C31.28 0.386665 31.4133 0.359999 31.52 0.359999C32 0.359999 32.24 0.493332 32.24 0.759998C32.24 0.973332 32.1067 1.21333 31.84 1.48C31.6267 1.69333 31.3867 1.85333 31.12 1.96C30.7467 2.06666 30.2133 2.49333 29.52 3.24C28.8267 3.98666 28.16 4.76 27.52 5.56C26.88 6.36 26.4 6.94666 26.08 7.32C28.48 5.61333 30.8267 4.38667 33.12 3.64C35.4667 2.89333 37.7067 2.52 39.84 2.52C43.04 2.52 46 3.21333 48.72 4.6C51.4933 5.98666 53.8933 7.8 55.92 10.04C57.9467 12.28 59.5467 14.7333 60.72 17.4C61.8933 20.0133 62.5067 22.6 62.56 25.16C62.72 29.96 62.08 34.6267 60.64 39.16C59.2533 43.64 57.36 47.8267 54.96 51.72C52.56 55.56 49.8667 58.9467 46.88 61.88C43.9467 64.8133 40.9867 67.1067 38 68.76C31.7067 72.2267 26.2667 73.96 21.68 73.96ZM24.56 71.4C26.32 71.4 28.2667 71.0533 30.4 70.36C32.5867 69.72 34.96 68.7067 37.52 67.32C40.6667 65.6133 43.5733 63.2667 46.24 60.28C48.9067 57.24 51.2267 53.8533 53.2 50.12C55.1733 46.3867 56.6667 42.5733 57.68 38.68C58.6933 34.7333 59.12 31 58.96 27.48C58.6933 22.5733 57.6533 18.44 55.84 15.08C54.0267 11.72 51.6533 9.16 48.72 7.4C45.84 5.64 42.6667 4.76 39.2 4.76C36.3733 4.76 33.44 5.37333 30.4 6.6C27.4133 7.82667 24.48 9.74667 21.6 12.36C18.3467 16.84 15.7067 22.2 13.68 28.44C11.7067 34.68 10.6133 41.4533 10.4 48.76C10.56 48.8133 10.72 48.84 10.88 48.84C11.0933 48.84 11.3067 48.84 11.52 48.84H12.4C13.2 48.84 13.4933 48.9467 13.28 49.16C12.32 49.96 11.4133 50.5467 10.56 50.92C10.6667 54.5467 11.2 57.9067 12.16 61C13.12 64.1467 14.6133 66.6533 16.64 68.52C18.6667 70.44 21.3067 71.4 24.56 71.4ZM7.2 49.8C7.78667 44.0933 8.93333 38.4667 10.64 32.92C12.4 27.32 14.4267 22.12 16.72 17.32C15.8133 18.3867 14.88 19.5333 13.92 20.76C13.0133 21.9333 12.1067 23.16 11.2 24.44C9.86667 26.3067 8.56 28.28 7.28 30.36C6.05333 32.44 5.04 34.52 4.24 36.6C3.44 38.68 3.04 40.68 3.04 42.6C3.04 44.2 3.38667 45.6667 4.08 47C4.45333 47.6933 4.90667 48.28 5.44 48.76C6.02667 49.1867 6.61333 49.5333 7.2 49.8ZM74.2825 65C72.5758 65 71.2692 64.2 70.3625 62.6C69.4558 61.0533 69.0025 59.3467 69.0025 57.48C69.0025 55.72 69.2958 53.88 69.8825 51.96C70.4692 50.04 71.1892 48.1467 72.0425 46.28C72.9492 44.4133 73.8825 42.7067 74.8425 41.16C73.8825 41.5333 72.9758 41.72 72.1225 41.72C71.6958 41.72 71.3225 41.6667 71.0025 41.56C70.6825 41.4533 70.4158 41.3733 70.2025 41.32C69.9358 41.96 69.4558 43.0267 68.7625 44.52C68.1225 46.0133 67.4292 47.5867 66.6825 49.24C65.9892 50.84 65.3758 52.2 64.8425 53.32C63.9892 55.1333 63.2425 56.04 62.6025 56.04C62.2825 56.04 62.1225 55.8267 62.1225 55.4C62.1225 55.08 62.2558 54.6533 62.5225 54.12C63.7492 51.8267 64.8958 49.56 65.9625 47.32C67.0825 45.08 68.0958 42.92 69.0025 40.84C68.8958 40.5733 68.7892 40.2267 68.6825 39.8C68.5758 39.32 68.5225 38.8133 68.5225 38.28C68.5225 37.6933 68.5758 37.08 68.6825 36.44C68.8425 35.7467 69.0558 35.08 69.3225 34.44C69.4825 34.0667 69.7758 33.5333 70.2025 32.84C70.6292 32.0933 71.1092 31.4267 71.6425 30.84C72.1758 30.2 72.6825 29.88 73.1625 29.88C74.0692 29.88 74.5225 30.36 74.5225 31.32C74.5225 32.2267 74.2292 33.2667 73.6425 34.44C73.1092 35.6133 72.5492 36.7067 71.9625 37.72C71.3758 38.68 71.0825 39.4 71.0825 39.88C71.0825 40.3067 71.2958 40.52 71.7225 40.52C72.3092 40.52 73.0292 40.2267 73.8825 39.64C74.7892 39 75.5092 38.4133 76.0425 37.88C76.3092 37.6133 76.7358 37.2133 77.3225 36.68C77.9092 36.0933 78.4692 35.8 79.0025 35.8C79.5358 35.8 79.8825 35.96 80.0425 36.28C80.2558 36.6 80.3625 36.9733 80.3625 37.4C80.3625 37.88 80.1492 38.4933 79.7225 39.24C79.2958 39.9333 78.7892 40.6267 78.2025 41.32C77.6692 42.0133 77.2158 42.6 76.8425 43.08C76.0958 44.2 75.2425 45.6133 74.2825 47.32C73.3225 49.0267 72.4958 50.8667 71.8025 52.84C71.1092 54.76 70.7625 56.6 70.7625 58.36C70.7625 59.5333 71.0558 60.76 71.6425 62.04C72.2292 63.32 73.0292 63.96 74.0425 63.96C74.9492 63.96 75.9092 63.48 76.9225 62.52C77.9892 61.56 78.9758 60.4133 79.8825 59.08C80.8425 57.7467 81.6692 56.4667 82.3625 55.24C83.1092 54.0133 83.6158 53.16 83.8825 52.68C83.9892 52.4133 84.1758 52.0933 84.4425 51.72C84.7092 51.2933 85.0292 51.08 85.4025 51.08C85.7225 51.08 85.8825 51.24 85.8825 51.56C85.8825 51.8267 85.8025 52.1467 85.6425 52.52C85.5358 52.84 85.4292 53.1333 85.3225 53.4C84.8425 54.52 84.2558 55.6933 83.5625 56.92C82.8692 58.1467 82.3892 58.9733 82.1225 59.4C81.3758 60.6267 80.2558 61.8533 78.7625 63.08C77.3225 64.36 75.8292 65 74.2825 65ZM84.6694 92.76C82.536 92.76 80.7227 92.12 79.2294 90.84C77.6827 89.6133 76.9094 87.96 76.9094 85.88C76.9094 83.8 77.896 81.3733 79.8694 78.6C81.8427 75.8267 85.176 72.9467 89.8694 69.96C90.936 69.2133 92.056 68.5467 93.2294 67.96C94.456 67.3733 95.7094 66.76 96.9894 66.12C97.3094 65.96 97.5494 65.88 97.7094 65.88C97.9227 65.88 98.0294 65.96 98.0294 66.12C98.0294 66.4933 97.656 66.8933 96.9094 67.32C94.3494 68.6 92.1627 69.9333 90.3494 71.32C88.5894 72.76 86.9627 74.44 85.4694 76.36C84.6694 77.3733 83.816 78.5467 82.9094 79.88C82.056 81.2667 81.336 82.6267 80.7494 83.96C80.1094 85.2933 79.7894 86.4933 79.7894 87.56C79.7894 89.8 80.856 90.92 82.9894 90.92C83.896 90.92 84.9627 90.6533 86.1894 90.12C87.416 89.64 88.7494 88.84 90.1894 87.72C93.816 84.8933 96.376 81.7467 97.8694 78.28C99.3627 74.8667 100.109 70.8667 100.109 66.28C100.109 62.8667 99.7894 59.08 99.1494 54.92C98.5627 50.6533 98.2427 46.5733 98.1894 42.68C97.9227 44.3333 97.4694 46.3333 96.8294 48.68C96.2427 50.9733 95.5227 53.16 94.6694 55.24C93.816 57.32 92.856 59.1067 91.7894 60.6C90.776 62.0933 89.4694 62.84 87.8694 62.84C86.7494 62.84 85.7894 62.28 84.9894 61.16C84.2427 60.04 83.8694 58.3333 83.8694 56.04C83.8694 54.3333 84.1627 52.3067 84.7494 49.96C85.336 47.6133 86.136 45.3467 87.1494 43.16C88.1627 40.92 89.2827 39.08 90.5094 37.64C91.7894 36.1467 93.0694 35.4 94.3494 35.4C95.256 35.4 95.896 35.7733 96.2694 36.52C96.696 37.2133 96.9094 37.9333 96.9094 38.68C96.9094 39.2667 96.8027 39.7733 96.5894 40.2C96.376 40.6267 96.056 40.84 95.6294 40.84C95.2027 40.7867 94.8827 40.6 94.6694 40.28C94.5094 39.9067 94.3494 39.56 94.1894 39.24C94.0294 38.8667 93.736 38.68 93.3094 38.68C92.456 38.68 91.6294 39.24 90.8294 40.36C90.0827 41.4267 89.3894 42.84 88.7494 44.6C88.1627 46.3067 87.6827 48.12 87.3094 50.04C86.9894 51.96 86.8294 53.72 86.8294 55.32C86.8294 56.8133 86.9894 58.04 87.3094 59C87.6827 59.96 88.2427 60.4667 88.9894 60.52C89.896 60.5733 90.776 59.9867 91.6294 58.76C92.4827 57.5333 93.256 55.96 93.9494 54.04C94.696 52.12 95.336 50.0933 95.8694 47.96C96.456 45.7733 96.936 43.7467 97.3094 41.88C97.736 39.96 98.0294 38.4667 98.1894 37.4C98.616 34.5733 99.016 32.7867 99.3894 32.04C99.7627 31.24 100.163 30.84 100.589 30.84C100.963 30.84 101.283 31.1867 101.549 31.88C101.869 32.5733 102.029 33.2133 102.029 33.8C102.029 34.2267 102.003 34.52 101.949 34.68C101.309 38.2 100.989 41.8 100.989 45.48C100.989 47.0267 101.043 48.5733 101.149 50.12C101.256 51.6133 101.389 53.1067 101.549 54.6C101.869 57.6933 102.029 60.5733 102.029 63.24C102.029 68.68 101.469 73.2667 100.349 77C99.2827 80.7867 97.8694 83.8267 96.1094 86.12C94.3494 88.4667 92.456 90.1467 90.4294 91.16C88.456 92.2267 86.536 92.76 84.6694 92.76ZM108.522 60.36C107.669 60.36 106.949 59.9067 106.362 59C105.935 58.2533 105.722 57.3733 105.722 56.36C105.722 54.92 106.042 53.2933 106.682 51.48C107.322 49.6667 108.175 47.9067 109.242 46.2C110.362 44.4933 111.589 43.0533 112.922 41.88C114.309 40.6533 115.722 39.9333 117.162 39.72C117.695 39.6667 118.335 39.8 119.082 40.12C119.829 40.44 120.442 40.84 120.922 41.32C121.029 40.7867 121.109 40.28 121.162 39.8C121.215 39.2667 121.242 38.76 121.242 38.28C121.242 36.7867 121.002 35.4533 120.522 34.28C120.042 33.1067 119.189 32.3333 117.962 31.96C117.482 31.8 116.949 31.72 116.362 31.72C116.042 31.72 115.695 31.7733 115.322 31.88C114.949 31.9333 114.549 32.0933 114.122 32.36C113.695 32.5733 113.269 32.92 112.842 33.4C112.415 33.8267 112.122 34.2267 111.962 34.6C111.855 34.8133 111.589 35.2933 111.162 36.04C110.735 36.7333 110.389 37.0533 110.122 37C109.909 36.9467 109.802 36.76 109.802 36.44C109.802 36.28 109.855 36.04 109.962 35.72C110.282 34.7067 110.895 33.8533 111.802 33.16C112.709 32.4133 113.695 31.8267 114.762 31.4C115.829 30.92 116.709 30.6533 117.402 30.6C117.562 30.6 117.722 30.6 117.882 30.6C118.042 30.5467 118.175 30.52 118.282 30.52C119.135 30.52 119.909 30.6533 120.602 30.92C121.349 31.1333 121.935 31.4267 122.362 31.8C123.055 32.3333 123.615 33.0267 124.042 33.88C124.469 34.68 124.682 35.6933 124.682 36.92C124.682 37.2933 124.655 37.6933 124.602 38.12C124.549 38.5467 124.469 38.9733 124.362 39.4C124.202 40.2533 123.989 41.3467 123.722 42.68C123.509 43.96 123.269 45.2933 123.002 46.68C122.789 48.0667 122.602 49.3467 122.442 50.52C122.335 51.64 122.282 52.44 122.282 52.92C122.282 53.4533 122.442 54.0667 122.762 54.76C123.135 55.4 123.615 55.72 124.202 55.72C124.522 55.72 124.869 55.56 125.242 55.24C125.669 54.92 126.095 54.3867 126.522 53.64C126.789 53.2133 127.029 53 127.242 53C127.509 53 127.642 53.16 127.642 53.48C127.642 53.9067 127.429 54.4133 127.002 55C125.989 56.44 124.709 57.16 123.162 57.16C121.882 57.16 120.975 56.6267 120.442 55.56C119.535 53.8 119.082 52.2267 119.082 50.84C119.082 49.4 119.055 48.4133 119.002 47.88C118.735 48.52 118.229 49.5333 117.482 50.92C116.735 52.2533 115.855 53.6667 114.842 55.16C113.829 56.6 112.762 57.8267 111.642 58.84C110.522 59.8533 109.482 60.36 108.522 60.36ZM109.802 57.96C110.335 57.96 110.949 57.6933 111.642 57.16C112.389 56.6267 113.162 55.8 113.962 54.68C115.029 53.1333 116.015 51.4 116.922 49.48C117.829 47.56 118.655 45.6933 119.402 43.88C118.762 42.3333 117.962 41.56 117.002 41.56C116.149 41.56 115.242 42.0133 114.282 42.92C113.322 43.8267 112.415 44.8667 111.562 46.04C110.495 47.64 109.642 49.24 109.002 50.84C108.415 52.44 108.122 53.8 108.122 54.92C108.122 56.9467 108.682 57.96 109.802 57.96ZM143.806 62.04C143.112 62.04 142.499 61.6133 141.966 60.76C141.432 59.8533 141.166 58.1467 141.166 55.64C141.166 53.6667 141.326 51.5067 141.646 49.16C141.966 46.76 142.312 44.3867 142.686 42.04C143.112 39.6933 143.486 37.6133 143.806 35.8C144.126 33.9333 144.286 32.5733 144.286 31.72C144.286 30.2267 143.832 29.48 142.926 29.48C142.072 29.48 141.192 29.9067 140.286 30.76C139.432 31.6133 138.606 32.6533 137.806 33.88C137.059 35.1067 136.392 36.3067 135.806 37.48C135.272 38.6 134.926 39.4267 134.766 39.96C134.019 42.04 133.486 44.12 133.166 46.2C132.846 48.2267 132.686 50.3333 132.686 52.52C132.686 53.4267 132.712 54.36 132.766 55.32C132.872 56.28 132.952 57.2667 133.006 58.28C133.112 58.8133 132.952 59.48 132.526 60.28C132.152 61.0267 131.699 61.4 131.166 61.4C130.792 61.4 130.472 61.16 130.206 60.68C129.939 60.2 129.752 59.7733 129.646 59.4C129.432 58.76 129.272 58.0933 129.166 57.4C129.059 56.6533 128.952 56.0133 128.846 55.48C128.472 53.2933 128.126 51.08 127.806 48.84C127.486 46.5467 127.032 44.3333 126.446 42.2C126.286 41.6133 126.072 41 125.806 40.36C125.592 39.6667 125.246 39.1067 124.766 38.68C124.659 38.5733 124.499 38.4667 124.286 38.36C124.072 38.2 123.966 38.0667 123.966 37.96C123.966 37.7467 124.259 37.64 124.846 37.64C125.486 37.64 126.126 37.96 126.766 38.6C127.406 39.24 127.992 40.0933 128.526 41.16C129.166 42.4933 129.699 43.9067 130.126 45.4C130.606 46.8933 130.979 48.0933 131.246 49C131.566 47.08 131.912 45.3733 132.286 43.88C132.659 42.6 133.166 41.08 133.806 39.32C134.446 37.5067 135.246 35.7467 136.206 34.04C137.166 32.28 138.312 30.84 139.646 29.72C140.979 28.5467 142.526 27.96 144.286 27.96C146.846 27.96 148.126 29.4533 148.126 32.44C148.126 33.9867 147.859 35.6933 147.326 37.56C146.792 39.3733 146.206 41.0533 145.566 42.6C144.979 44.1467 144.579 45.2133 144.366 45.8C144.099 46.5467 143.806 47.56 143.486 48.84C143.219 50.12 142.979 51.4533 142.766 52.84C142.606 54.2267 142.526 55.5067 142.526 56.68C142.526 57.6933 142.632 58.5467 142.846 59.24C143.112 59.88 143.512 60.2 144.046 60.2C144.579 60.2 145.059 59.96 145.486 59.48C145.912 58.9467 146.259 58.4667 146.526 58.04C146.846 57.6133 147.006 57.5333 147.006 57.8C147.112 58.6 146.819 59.5067 146.126 60.52C145.486 61.5333 144.712 62.04 143.806 62.04ZM158.136 34.28C157.656 34.28 157.31 34.04 157.096 33.56C156.936 33.0267 156.856 32.6533 156.856 32.44C156.856 31.5867 157.096 30.7867 157.576 30.04C158.11 29.24 158.696 28.8133 159.336 28.76H159.576C160.216 28.76 160.643 28.92 160.856 29.24C161.123 29.5067 161.256 29.8533 161.256 30.28C161.256 31.08 160.91 31.96 160.216 32.92C159.523 33.8267 158.83 34.28 158.136 34.28ZM154.056 62.92C152.243 62.92 151.016 62.2267 150.376 60.84C149.736 59.4533 149.416 57.8533 149.416 56.04C149.416 54.2267 149.603 52.3333 149.976 50.36C150.403 48.3333 150.856 46.4933 151.336 44.84C151.87 43.1867 152.27 42.0133 152.536 41.32C153.123 40.0933 153.71 39.0533 154.296 38.2C154.883 37.2933 155.523 36.84 156.216 36.84C156.696 36.84 157.043 37.0267 157.256 37.4C157.523 37.72 157.656 38.1467 157.656 38.68C157.656 39.7467 157.363 40.84 156.776 41.96C156.19 43.0267 155.656 44.04 155.176 45C154.11 47.1867 153.256 49.1333 152.616 50.84C152.03 52.5467 151.736 54.68 151.736 57.24C151.736 58.8933 151.896 60.0933 152.216 60.84C152.59 61.5867 153.096 61.96 153.736 61.96C154.59 61.96 155.576 61.48 156.696 60.52C157.816 59.5067 158.963 58.1733 160.136 56.52C161.31 54.8667 162.35 53.08 163.256 51.16C163.843 49.9333 164.296 49.32 164.616 49.32C164.83 49.32 164.936 49.5333 164.936 49.96C164.936 50.5467 164.696 51.4 164.216 52.52C163.79 53.5867 163.256 54.68 162.616 55.8C162.03 56.92 161.47 57.8 160.936 58.44C160.03 59.6133 158.99 60.6533 157.816 61.56C156.643 62.4667 155.39 62.92 154.056 62.92ZM166.781 62.6C165.448 62.6 164.275 62.12 163.261 61.16C162.301 60.2533 161.821 58.68 161.821 56.44C161.821 55.2667 162.061 53.8267 162.541 52.12C163.021 50.36 163.661 48.52 164.461 46.6C165.315 44.68 166.275 42.8933 167.341 41.24C168.408 39.5867 169.528 38.2267 170.701 37.16C171.875 36.0933 173.021 35.56 174.141 35.56C175.048 35.56 175.688 35.88 176.061 36.52C176.488 37.16 176.701 37.8533 176.701 38.6C176.701 39.24 176.568 39.8267 176.301 40.36C176.088 40.84 175.768 41.08 175.341 41.08C174.915 41.08 174.595 40.8933 174.381 40.52C174.221 40.0933 174.061 39.6933 173.901 39.32C173.795 38.8933 173.501 38.68 173.021 38.68C172.061 38.68 171.101 39.32 170.141 40.6C169.181 41.8267 168.301 43.4 167.501 45.32C166.701 47.24 166.061 49.2133 165.581 51.24C165.101 53.2667 164.861 55.0533 164.861 56.6C164.861 57.9333 165.021 58.92 165.341 59.56C165.715 60.1467 166.381 60.44 167.341 60.44C168.568 60.44 169.741 60.0933 170.861 59.4C172.035 58.6533 173.101 57.7467 174.061 56.68C175.021 55.6133 175.821 54.6 176.461 53.64C177.155 52.68 177.635 51.96 177.901 51.48C178.541 50.2533 179.048 49.64 179.421 49.64C179.581 49.64 179.661 49.8533 179.661 50.28C179.661 50.8133 179.555 51.3467 179.341 51.88C179.128 52.36 178.915 52.8133 178.701 53.24C177.955 54.84 176.941 56.36 175.661 57.8C174.381 59.1867 172.968 60.3333 171.421 61.24C169.928 62.1467 168.381 62.6 166.781 62.6ZM250.392 76.28C248.899 76.28 247.645 75.64 246.632 74.36C245.619 73.1333 244.872 71.6133 244.392 69.8C243.912 67.9867 243.672 66.2533 243.672 64.6C243.672 61.4 244.125 57.8533 245.032 53.96C245.939 50.0667 247.059 46.0933 248.392 42.04C249.779 37.9867 251.192 34.0933 252.632 30.36C254.125 26.5733 255.459 23.16 256.632 20.12C257.805 17.08 258.632 14.6533 259.112 12.84C259.219 12.36 259.299 11.9333 259.352 11.56C259.405 11.1333 259.432 10.7867 259.432 10.52C259.432 9.56 259.139 9.08 258.552 9.08C257.699 9.08 256.419 9.96 254.712 11.72C253.005 13.4267 251.085 15.7733 248.952 18.76C246.872 21.6933 244.792 25.0267 242.712 28.76C240.632 32.4933 238.765 36.36 237.112 40.36C235.512 44.3067 234.392 48.1733 233.752 51.96C233.539 53.3467 233.165 54.3867 232.632 55.08C232.152 55.7733 231.672 56.12 231.192 56.12C230.765 56.12 230.392 55.8533 230.072 55.32C229.752 54.7867 229.592 54.0133 229.592 53C229.539 48.7333 229.405 44.4667 229.192 40.2C228.979 35.88 228.499 31.7467 227.752 27.8C226.632 21.72 225.352 17.4 223.912 14.84C222.525 12.28 221.085 11 219.592 11C218.205 11 216.845 11.8533 215.512 13.56C214.232 15.2133 213.005 17.4267 211.832 20.2C210.659 22.92 209.619 25.9067 208.712 29.16C207.805 32.4133 207.085 35.64 206.552 38.84C206.072 42.04 205.832 44.8933 205.832 47.4C205.832 47.9867 205.832 48.5733 205.832 49.16C205.885 49.6933 205.939 50.2 205.992 50.68C206.045 50.9467 206.072 51.24 206.072 51.56C206.072 51.8267 206.072 52.0933 206.072 52.36C206.072 53.5867 205.912 54.68 205.592 55.64C205.272 56.6 204.899 57.08 204.472 57.08C204.045 57.08 203.645 56.6 203.272 55.64C202.845 54.68 202.499 53.48 202.232 52.04C201.965 50.5467 201.752 49.2933 201.592 48.28C201.485 47.5333 201.245 46.4133 200.872 44.92C200.552 43.4267 200.152 41.8 199.672 40.04C199.192 38.2267 198.632 36.4667 197.992 34.76C197.405 33 196.765 31.5067 196.072 30.28C195.379 29 194.659 28.1733 193.912 27.8C193.805 27.6933 193.752 27.5867 193.752 27.48C193.752 27.2133 194.019 27.0533 194.552 27C195.139 26.9467 195.539 26.9733 195.752 27.08C196.872 27.4 197.859 28.2 198.712 29.48C199.619 30.7067 200.392 32.1733 201.032 33.88C201.725 35.5333 202.312 37.1867 202.792 38.84C203.272 40.44 203.672 41.7733 203.992 42.84C204.579 39.16 205.272 35.5333 206.072 31.96C206.925 28.3333 208.045 24.7867 209.432 21.32C211.405 16.52 213.352 13.1067 215.272 11.08C217.192 9 219.005 7.96 220.712 7.96C222.525 7.96 224.152 8.89333 225.592 10.76C227.085 12.5733 228.339 15 229.352 18.04C230.419 21.0267 231.139 24.28 231.512 27.8C231.725 29.6133 231.859 31.5867 231.912 33.72C231.965 35.8 231.992 37.8533 231.992 39.88V46.12C231.992 47.0267 231.992 47.8533 231.992 48.6C231.992 49.3467 232.019 49.96 232.072 50.44C232.445 49.16 233.059 47.3733 233.912 45.08C234.765 42.7333 235.805 40.12 237.032 37.24C238.259 34.3067 239.645 31.2933 241.192 28.2C242.739 25.1067 244.392 22.1467 246.152 19.32C247.965 16.44 249.832 13.9333 251.752 11.8C253.725 9.61333 255.699 8.01333 257.672 7C258.845 6.41333 259.939 6.12 260.952 6.12C262.125 6.12 263.112 6.46666 263.912 7.16C264.712 7.8 265.112 8.76 265.112 10.04C265.112 11.96 264.712 13.88 263.912 15.8C263.112 17.6667 262.152 19.5067 261.032 21.32C259.912 23.1333 258.872 24.8933 257.912 26.6C256.205 29.6933 254.499 33.2667 252.792 37.32C251.085 41.3733 249.645 45.56 248.472 49.88C247.352 54.2 246.792 58.36 246.792 62.36C246.792 63.64 246.845 64.8933 246.952 66.12C247.112 67.3467 247.352 68.52 247.672 69.64C248.152 71.3467 248.739 72.52 249.432 73.16C250.179 73.8533 250.925 74.2 251.672 74.2C252.472 74.2 253.219 73.96 253.912 73.48C254.605 73.0533 255.165 72.5733 255.592 72.04C256.019 71.56 256.205 71.2667 256.152 71.16C256.632 71 256.819 71.1333 256.712 71.56C256.605 72.04 256.392 72.52 256.072 73C255.752 73.5333 255.539 73.8533 255.432 73.96C253.565 75.5067 251.885 76.28 250.392 76.28ZM280.127 66.28C276.767 66.28 273.62 65.5867 270.687 64.2C267.754 62.8133 265.38 60.5733 263.567 57.48C261.807 54.3867 260.927 50.3067 260.927 45.24C260.927 44.12 260.954 42.9733 261.007 41.8C261.114 40.5733 261.274 39.32 261.487 38.04C261.114 37.9867 260.74 37.9867 260.367 38.04C259.994 38.04 259.674 38.04 259.407 38.04C258.927 38.04 258.554 37.9333 258.287 37.72C258.02 37.5067 257.86 37.0533 257.807 36.36C257.807 35.6133 257.967 34.92 258.287 34.28C258.66 33.64 259.034 33.5333 259.407 33.96C259.994 34.44 261.06 34.7333 262.607 34.84C263.674 31.1067 265.274 27.6667 267.407 24.52C269.594 21.3733 272.074 18.5467 274.847 16.04C277.674 13.48 280.58 11.32 283.567 9.56C286.607 7.74666 289.514 6.38666 292.287 5.48C295.06 4.52 297.514 4.04 299.647 4.04C301.46 4.04 302.9 4.41333 303.967 5.16C305.087 5.90667 305.647 7.08 305.647 8.68C305.647 9.37333 305.54 10.0667 305.327 10.76C304.9 12.5733 304.207 14.0133 303.247 15.08C302.34 16.1467 301.674 16.68 301.247 16.68C300.98 16.68 300.847 16.5467 300.847 16.28C300.847 16.0133 301.06 15.4533 301.487 14.6C302.287 13.16 302.687 11.9067 302.687 10.84C302.687 9.50667 302.154 8.52 301.087 7.88C300.02 7.18666 298.607 6.84 296.847 6.84C294.607 6.84 292.02 7.4 289.087 8.52C286.154 9.64 283.167 11.3467 280.127 13.64C277.087 15.88 274.287 18.76 271.727 22.28C269.22 25.7467 267.274 29.88 265.887 34.68C266.9 34.5733 267.94 34.4667 269.007 34.36C270.074 34.2 271.034 34.0133 271.887 33.8C278.927 32.2533 284.234 31.16 287.807 30.52C291.434 29.8267 293.7 29.48 294.607 29.48C295.407 29.48 295.354 29.6667 294.447 30.04C293.54 30.4133 291.994 30.9467 289.807 31.64C287.674 32.28 285.06 33 281.967 33.8C278.874 34.5467 275.514 35.32 271.887 36.12C270.98 36.3333 269.914 36.6 268.687 36.92C267.514 37.24 266.314 37.5333 265.087 37.8C264.767 40.0933 264.607 42.2533 264.607 44.28C264.607 49.08 265.407 52.9733 267.007 55.96C268.607 58.8933 270.714 61.0267 273.327 62.36C275.94 63.7467 278.767 64.44 281.807 64.44C284.9 64.44 287.967 63.8267 291.007 62.6C294.1 61.3733 296.9 59.6667 299.407 57.48C301.914 55.24 303.807 52.6533 305.087 49.72C305.567 48.7067 305.994 48.2 306.367 48.2C306.634 48.2 306.767 48.4133 306.767 48.84C306.767 49.1067 306.687 49.48 306.527 49.96C305.727 52.3067 304.42 54.4933 302.607 56.52C300.794 58.4933 298.66 60.2 296.207 61.64C293.754 63.1333 291.14 64.28 288.367 65.08C285.594 65.88 282.847 66.28 280.127 66.28Z" fill="black"/>
</svg>
